/* XPM */
static char * one_xpm[] = {
"25 25 50 1",
" 	c None",
".	c #FFA500",
"+	c #F88300",
"@	c #EC4300",
"#	c #F16000",
"$	c #FDA100",
"%	c #FB9200",
"&	c #E83D00",
"*	c #E30000",
"=	c #E52E00",
"-	c #FDA300",
";	c #F25B00",
">	c #E92400",
",	c #F05900",
"'	c #F88000",
")	c #EF4900",
"!	c #E61200",
"~	c #F56E00",
"{	c #EC3700",
"]	c #FEA400",
"^	c #F36B00",
"/	c #FEA300",
"(	c #F68500",
"_	c #EF5500",
":	c #F05A00",
"<	c #E92D00",
"[	c #E30F00",
"}	c #E30D00",
"|	c #EC3900",
"1	c #F15C00",
"2	c #F57C00",
"3	c #ED4900",
"4	c #E61B00",
"5	c #E62000",
"6	c #E82200",
"7	c #E82300",
"8	c #E82400",
"9	c #E72200",
"0	c #E72100",
"a	c #EF5000",
"b	c #FA9C00",
"c	c #F98700",
"d	c #F78B00",
"e	c #F98C00",
"f	c #F98D00",
"g	c #FA8E00",
"h	c #FA8B00",
"i	c #F98B00",
"j	c #FA9100",
"k	c #FCA000",
"...............+@#$......",
"..............%&*=-......",
"...........%;>***,.......",
"........')!******~.......",
".......****{'****%.......",
"......~*!)%.'****........",
"......'~....~***{........",
"............{***{........",
"............{***~........",
"............****~........",
"...........%****.........",
"...........~***!.........",
"...........;***{.........",
"...........{***).........",
"...........!***~.........",
"...........****'.........",
"..........'****..........",
"..........~***!..........",
"..........{***{..........",
"..........{***;..........",
"..........****~..........",
".....]$..'****^$//.......",
"....](_:<[****}|,12......",
"..../3456777788890a......",
".....bcdefffghhhijk......"};
