/* XPM */
static char * three_xpm[] = {
"25 25 18 1",
" 	c None",
".	c #FFA500",
"+	c #F25B00",
"@	c #E92400",
"#	c #E30000",
"$	c #F88000",
"%	c #E61200",
"&	c #FB9200",
"*	c #EC3700",
"=	c #F56E00",
"-	c #EF4900",
";	c #F25F00",
">	c #FB8F00",
",	c #F56F00",
"'	c #F26000",
")	c #F05200",
"!	c #E82800",
"~	c #EF5000",
"..........+@###@+........",
"........$%#######@&......",
"........@##**#####*......",
".......$#*&..&*####&.....",
".......*@.....&####=.....",
".......#&......*###=.....",
"...............*###&.....",
"...............%##-......",
"..............$##*.......",
".............&%#-........",
".........===-#-&.........",
"........$######@+........",
"........$=&.$*###%&......",
"..............@###*......",
"..............=####&.....",
"...............####;>....",
"...............####;>....",
".....+$........####,>....",
".....#=.......=###%......",
".....#=.......-###-......",
"....=#+......&###%.......",
"....+#%&....&%##%&.......",
"....*##%=..=%##*&........",
".....+@######*$..........",
"........')!~~............"};
