/* XPM */
static char * two_xpm[] = {
"25 25 18 1",
" 	c None",
".	c #FFA500",
"+	c #FB9200",
"@	c #EF4900",
"#	c #E61200",
"$	c #E30000",
"%	c #F56E00",
"&	c #F88000",
"*	c #E92400",
"=	c #F25B00",
"-	c #EC3700",
";	c #ED4500",
">	c #F15B00",
",	c #F26400",
"'	c #EB3400",
")	c #F15C00",
"!	c #ED4200",
"~	c #F57300",
".........+@#$$#@+........",
"........@$$$$$$$$%.......",
".......&$$$$$$$$$$&......",
".......@$*+.+@$$$$*......",
".......$*.....=$$$$+.....",
"......%$+......#$$$%.....",
"......-@.......-$$$%.....",
"...............-$$$&.....",
"...............#$$#......",
"..............+$$$@......",
"..............@$$#+......",
".............+#$$%.......",
".............@$$=........",
"............&$$-.........",
"...........+#$-..........",
"...........-$-...........",
"..........-$-............",
".........=$-.............",
"........%$-..............",
".......%$-...............",
"......%$;>,,,,,,,>').....",
".....@$$$$$$$$$$$$$......",
"....-$$$$$$$$$$$$$!......",
"....--------------~......",
"........................."};
