/* XPM */
static char * zero_xpm[] = {
"25 25 26 1",
" 	c None",
".	c #FFA500",
"+	c #FB9200",
"@	c #EF4900",
"#	c #E61200",
"$	c #E30000",
"%	c #EC3700",
"&	c #F87F00",
"*	c #FEA400",
"=	c #F56E00",
"-	c #E92400",
";	c #EC3600",
">	c #F56D00",
",	c #F88000",
"'	c #F25B00",
")	c #FEA300",
"!	c #F25A00",
"~	c #FB9100",
"{	c #F99A00",
"]	c #F05900",
"^	c #E30F00",
"/	c #FB9700",
"(	c #EE5200",
"_	c #E93400",
":	c #EE5100",
"<	c #FB9600",
"..........+@#$$%&*.......",
".........=$$-=;$$>.......",
"........=$$-***-$$,......",
".......+#$$&***'$$-......",
".......-$$#****>$$$+.....",
"......&$$$;.***>$$$=.....",
"......-$$$=.***>$$$@.....",
".....,$$$$+.*)*!$$$%.....",
".....@$$$#..*));$$$%.....",
".....-$$$%..*));$$$%.....",
".....$$$$'.****-$$$%.....",
"....=$$$$=.****$$$$@.....",
"....=$$$$..***~$$$$=.....",
"....%$$$$..***>$$$$,.....",
"....%$$$-..***'$$$$......",
"....%$$$%..***;$$$%......",
"....%$$$%.****#$$$'......",
"....%$$$=.****$$$$.......",
"....'$$$=.***>$$$@.......",
"....=$$$=.***;$$$+.......",
".....#$$=.***#$$@........",
".....'$$@***'$$-.........",
".....*;$$'{]$$#~***......",
".....**@$$$$^@*****......",
"......../(_:<............"};
